<svg width="61" height="62" viewBox="0 0 61 62" fill="none" xmlns="http://www.w3.org/2000/svg">
<path d="M4 52.002V9.07023C4 6.26078 6.27751 4 9.08696 4H16.5996C20.4106 4 23.5 7.08942 23.5 10.9004C23.5 11.3488 23.8635 11.7122 24.3118 11.7122H51C54.3137 11.7122 57 14.3942 57 17.7079V52.006C57 55.3198 54.3137 58 51 58H10C6.68629 58 4 55.3157 4 52.002Z" stroke="#FFCD43" stroke-width="8"/>
<path d="M4 54V31C4 29.8954 4.89543 29 6 29H46C52.0751 29 57 33.9249 57 40V54C57 56.2091 55.2091 58 53 58H8C5.79086 58 4 56.2091 4 54Z" stroke="#FFCD43" stroke-width="8"/>
</svg>
